<?xml version="1.0" encoding="iso-8859-1"?>
<!-- Generator: Adobe Illustrator 19.0.0, SVG Export Plug-In . SVG Version: 6.00 Build 0)  -->
<svg version="1.1" id="Layer_1" xmlns="http://www.w3.org/2000/svg" xmlns:xlink="http://www.w3.org/1999/xlink" x="0px" y="0px"
	 viewBox="0 0 512 512" style="enable-background:new 0 0 512 512;" xml:space="preserve">
<path style="fill:#73C470;" d="M130.81,503.916h253.128v-17.123c0-17.159,13.909-31.069,31.069-31.069s31.069,13.91,31.069,31.069
	v17.123h57.839V8.084h-57.838v17.123c0,17.159-13.909,31.069-31.069,31.069s-31.069-13.91-31.069-31.069V8.084H137.442
	L8.084,137.442v366.473h95.242"/>
<circle style="fill:#8AACAD;" cx="56.044" cy="457.523" r="15.808"/>
<rect x="184.126" y="184.6" style="fill:#547475;" width="146.594" height="146.594"/>
<g style="opacity:0.1;">
	<rect x="184.126" y="184.6" style="fill:#231F20;" width="25.296" height="146.594"/>
</g>
<path style="fill:#EBF25F;" d="M363.052,202.105V168.43c0-8.929-7.24-16.168-16.168-16.168H167.953
	c-8.93,0-16.168,7.239-16.168,16.168V347.36c0,8.929,7.238,16.168,16.168,16.168h178.931c8.928,0,16.168-7.239,16.168-16.168v-29.92
	v-89.877 M330.715,331.192H184.122V184.598h146.594V331.192z"/>
<circle style="fill:#384949;" cx="257.423" cy="256" r="38.082"/>
<polyline style="fill:#EBF25F;" points="503.916,402.93 466.838,402.93 466.838,109.07 503.916,109.07 "/>
<g>
	<path style="fill:#231F20;" d="M53.657,184.077c4.466,0,8.084-3.62,8.084-8.084c0-4.465-3.618-8.084-8.084-8.084h-0.023
		c-4.466,0-8.072,3.62-8.072,8.084C45.562,180.458,49.192,184.077,53.657,184.077z"/>
	<path style="fill:#231F20;" d="M53.657,272.276c4.466,0,8.084-3.62,8.084-8.084c0-4.465-3.618-8.084-8.084-8.084h-0.023
		c-4.466,0-8.072,3.62-8.072,8.084C45.562,268.657,49.192,272.276,53.657,272.276z"/>
	<path style="fill:#231F20;" d="M53.657,242.877c4.466,0,8.084-3.62,8.084-8.084c0-4.465-3.618-8.084-8.084-8.084h-0.023
		c-4.466,0-8.072,3.62-8.072,8.084C45.562,239.257,49.192,242.877,53.657,242.877z"/>
	<path style="fill:#231F20;" d="M53.657,213.477c4.466,0,8.084-3.62,8.084-8.084c0-4.465-3.618-8.084-8.084-8.084h-0.023
		c-4.466,0-8.072,3.62-8.072,8.084C45.562,209.857,49.192,213.477,53.657,213.477z"/>
	<path style="fill:#231F20;" d="M53.657,329.669c4.466,0,8.084-3.62,8.084-8.084c0-4.465-3.618-8.084-8.084-8.084h-0.023
		c-4.466,0-8.072,3.62-8.072,8.084C45.562,326.049,49.192,329.669,53.657,329.669z"/>
	<path style="fill:#231F20;" d="M53.657,417.867c4.466,0,8.084-3.62,8.084-8.084s-3.618-8.084-8.084-8.084h-0.023
		c-4.466,0-8.072,3.62-8.072,8.084S49.192,417.867,53.657,417.867z"/>
	<path style="fill:#231F20;" d="M53.657,388.469c4.466,0,8.084-3.62,8.084-8.084c0-4.465-3.618-8.084-8.084-8.084h-0.023
		c-4.466,0-8.072,3.62-8.072,8.084C45.562,384.849,49.192,388.469,53.657,388.469z"/>
	<path style="fill:#231F20;" d="M53.657,359.068c4.466,0,8.084-3.62,8.084-8.084s-3.618-8.084-8.084-8.084h-0.023
		c-4.466,0-8.072,3.62-8.072,8.084S49.192,359.068,53.657,359.068z"/>
	<path style="fill:#231F20;" d="M82.76,241.017h-0.023c-4.466,0-8.072,3.62-8.072,8.084c0,4.465,3.63,8.084,8.096,8.084
		c4.466,0,8.084-3.62,8.084-8.084C90.845,244.637,87.225,241.017,82.76,241.017z"/>
	<path style="fill:#231F20;" d="M82.76,211.618h-0.023c-4.466,0-8.072,3.62-8.072,8.084c0,4.465,3.63,8.084,8.096,8.084
		c4.466,0,8.084-3.62,8.084-8.084C90.844,215.237,87.225,211.618,82.76,211.618z"/>
	<path style="fill:#231F20;" d="M82.76,182.218h-0.023c-4.466,0-8.072,3.62-8.072,8.084c0,4.465,3.63,8.084,8.096,8.084
		c4.466,0,8.084-3.62,8.084-8.084C90.845,185.838,87.225,182.218,82.76,182.218z"/>
	<path style="fill:#231F20;" d="M90.844,394.693c0-4.465-3.618-8.084-8.084-8.084h-0.023c-4.466,0-8.072,3.62-8.072,8.084
		s3.63,8.084,8.096,8.084C87.226,402.777,90.844,399.158,90.844,394.693z"/>
	<path style="fill:#231F20;" d="M82.76,357.21h-0.023c-4.466,0-8.072,3.62-8.072,8.084s3.63,8.084,8.096,8.084
		c4.466,0,8.084-3.62,8.084-8.084S87.225,357.21,82.76,357.21z"/>
	<path style="fill:#231F20;" d="M82.76,327.809h-0.023c-4.466,0-8.072,3.62-8.072,8.084c0,4.465,3.63,8.084,8.096,8.084
		c4.466,0,8.084-3.62,8.084-8.084C90.844,331.429,87.225,327.809,82.76,327.809z"/>
	<path style="fill:#231F20;" d="M105.411,454.633c-4.466,0-8.084,3.62-8.084,8.084v0.023c0,4.465,3.618,8.072,8.084,8.072
		s8.084-3.631,8.084-8.096S109.876,454.633,105.411,454.633z"/>
	<path style="fill:#231F20;" d="M193.608,470.814c4.466,0,8.084-3.631,8.084-8.096c0-4.465-3.618-8.084-8.084-8.084
		s-8.084,3.62-8.084,8.084v0.023C185.524,467.205,189.144,470.814,193.608,470.814z"/>
	<path style="fill:#231F20;" d="M164.209,454.633c-4.466,0-8.084,3.62-8.084,8.084v0.023c0,4.465,3.618,8.072,8.084,8.072
		c4.466,0,8.084-3.631,8.084-8.096S168.673,454.633,164.209,454.633z"/>
	<path style="fill:#231F20;" d="M134.808,454.633c-4.466,0-8.084,3.62-8.084,8.084v0.023c0,4.465,3.618,8.072,8.084,8.072
		s8.084-3.631,8.084-8.096S139.274,454.633,134.808,454.633z"/>
	<path style="fill:#231F20;" d="M253.685,454.633c-4.466,0-8.084,3.62-8.084,8.084v0.023c0,4.465,3.618,8.072,8.084,8.072
		c4.466,0,8.084-3.631,8.084-8.096S258.149,454.633,253.685,454.633z"/>
	<path style="fill:#231F20;" d="M341.884,470.814c4.466,0,8.084-3.631,8.084-8.096c0-4.465-3.618-8.084-8.084-8.084
		s-8.084,3.62-8.084,8.084v0.023C333.8,467.205,337.419,470.814,341.884,470.814z"/>
	<path style="fill:#231F20;" d="M312.484,470.814c4.466,0,8.084-3.631,8.084-8.096c0-4.465-3.618-8.084-8.084-8.084
		s-8.084,3.62-8.084,8.084v0.023C304.4,467.205,308.019,470.814,312.484,470.814z"/>
	<path style="fill:#231F20;" d="M283.084,470.814c4.466,0,8.084-3.631,8.084-8.096c0-4.465-3.618-8.084-8.084-8.084
		s-8.084,3.62-8.084,8.084v0.023C275,467.205,278.619,470.814,283.084,470.814z"/>
	<path style="fill:#231F20;" d="M178.518,441.71c4.466,0,8.084-3.631,8.084-8.096c0-4.465-3.618-8.084-8.084-8.084
		c-4.466,0-8.084,3.62-8.084,8.084v0.023C170.433,438.102,174.053,441.71,178.518,441.71z"/>
	<path style="fill:#231F20;" d="M141.034,433.614v0.023c0,4.465,3.618,8.072,8.084,8.072s8.084-3.631,8.084-8.096
		s-3.618-8.084-8.084-8.084S141.034,429.15,141.034,433.614z"/>
	<path style="fill:#231F20;" d="M127.802,433.614c0-4.465-3.618-8.084-8.084-8.084s-8.084,3.62-8.084,8.084v0.023
		c0,4.465,3.618,8.072,8.084,8.072S127.802,438.079,127.802,433.614z"/>
	<path style="fill:#231F20;" d="M326.794,441.71c4.466,0,8.084-3.631,8.084-8.096c0-4.465-3.618-8.084-8.084-8.084
		c-4.466,0-8.084,3.62-8.084,8.084v0.023C318.71,438.102,322.328,441.71,326.794,441.71z"/>
	<path style="fill:#231F20;" d="M297.393,441.71c4.466,0,8.084-3.631,8.084-8.096c0-4.465-3.618-8.084-8.084-8.084
		s-8.084,3.62-8.084,8.084v0.023C289.309,438.102,292.929,441.71,297.393,441.71z"/>
	<path style="fill:#231F20;" d="M267.994,441.71c4.466,0,8.084-3.631,8.084-8.096c0-4.465-3.618-8.084-8.084-8.084
		s-8.084,3.62-8.084,8.084v0.023C259.91,438.102,263.528,441.71,267.994,441.71z"/>
	<path style="fill:#231F20;" d="M363.052,210.189c4.466,0,8.084-3.62,8.084-8.084V168.43c0-13.373-10.88-24.253-24.253-24.253
		H167.953c-13.372,0-24.253,10.879-24.253,24.253V347.36c0,13.373,10.88,24.253,24.253,24.253h178.931
		c13.372,0,24.253-10.879,24.253-24.253V227.563c0-4.465-3.618-8.084-8.084-8.084s-8.084,3.62-8.084,8.084V347.36
		c0,4.458-3.626,8.084-8.084,8.084H167.953c-4.458,0-8.084-3.626-8.084-8.084V168.43c0-4.458,3.626-8.084,8.084-8.084h178.931
		c4.458,0,8.084,3.626,8.084,8.084v33.676C354.968,206.57,358.588,210.189,363.052,210.189z"/>
	<path style="fill:#231F20;" d="M184.122,176.514c-4.466,0-8.084,3.62-8.084,8.084v146.594c0,4.465,3.618,8.084,8.084,8.084h146.594
		c4.466,0,8.084-3.62,8.084-8.084V184.598c0-4.465-3.618-8.084-8.084-8.084H184.122z M322.631,323.108H192.206V192.682h130.425
		V323.108z"/>
	<path style="fill:#231F20;" d="M257.418,302.171c25.459,0,46.171-20.712,46.171-46.169c0-25.459-20.712-46.169-46.171-46.169
		s-46.171,20.712-46.171,46.169S231.96,302.171,257.418,302.171z M257.418,225.999c16.544,0,30.002,13.459,30.002,30.001
		c0,16.544-13.459,30.001-30.002,30.001S227.416,272.542,227.416,256C227.416,239.456,240.876,225.999,257.418,225.999z"/>
	<path style="fill:#231F20;" d="M503.916,0h-57.838c-4.466,0-8.084,3.62-8.084,8.084v17.123c0,12.674-10.311,22.985-22.985,22.985
		c-12.674,0-22.985-10.311-22.985-22.985V8.084c0-4.465-3.618-8.084-8.084-8.084H137.442c-2.144,0-4.199,0.852-5.717,2.368
		L2.367,131.726C0.852,133.242,0,135.298,0,137.442v366.473C0,508.38,3.618,512,8.084,512h95.242c4.466,0,8.084-3.62,8.084-8.084
		s-3.618-8.084-8.084-8.084H16.168v-355.04L140.79,16.168h235.064v9.039c0,21.589,17.564,39.153,39.153,39.153
		s39.153-17.564,39.153-39.153v-9.039h41.67v84.817h-28.993c-4.466,0-8.084,3.62-8.084,8.084v293.86
		c0,4.465,3.618,8.084,8.084,8.084h28.993v84.817h-41.669v-9.039c0-21.589-17.564-39.153-39.153-39.153
		s-39.153,17.564-39.153,39.153v9.039H130.81c-4.466,0-8.084,3.62-8.084,8.084S126.344,512,130.81,512h253.128
		c4.466,0,8.084-3.62,8.084-8.084v-17.123c0-12.674,10.311-22.985,22.985-22.985s22.985,10.311,22.985,22.985v17.123
		c0,4.465,3.618,8.084,8.084,8.084h57.839c4.466,0,8.084-3.62,8.084-8.084V8.084C512,3.62,508.382,0,503.916,0z M474.923,394.846
		V117.154h20.909v277.692H474.923z"/>
	<path style="fill:#231F20;" d="M32.151,457.519c0,13.175,10.718,23.894,23.893,23.894s23.893-10.719,23.893-23.894
		s-10.718-23.894-23.893-23.894S32.151,444.344,32.151,457.519z M56.044,449.795c4.259,0,7.724,3.465,7.724,7.725
		c0,4.26-3.465,7.725-7.724,7.725s-7.724-3.465-7.724-7.725C48.32,453.259,51.785,449.795,56.044,449.795z"/>
</g>
<g style="opacity:0.2;">
	<polygon style="fill:#231F20;" points="166.424,14.749 154.227,2.554 19.17,137.612 12.628,137.612 12.628,144.154 11.865,144.915 
		12.628,145.676 12.628,500.323 33.713,500.323 33.713,147.458 	"/>
</g>
<g>
</g>
<g>
</g>
<g>
</g>
<g>
</g>
<g>
</g>
<g>
</g>
<g>
</g>
<g>
</g>
<g>
</g>
<g>
</g>
<g>
</g>
<g>
</g>
<g>
</g>
<g>
</g>
<g>
</g>
</svg>
